<svg width="60" height="64" viewBox="0 0 60 64" fill="none" xmlns="http://www.w3.org/2000/svg">
<g opacity="0.6">
<path d="M25.7783 28.1431H40.671" stroke="#C9CAD1" stroke-width="3" stroke-linecap="round" stroke-linejoin="round"/>
<path d="M25.7783 32.77H40.671" stroke="#C9CAD1" stroke-width="3" stroke-linecap="round" stroke-linejoin="round"/>
<path d="M20.2432 18.8892H40.4773L46.2053 25.8289V37.8853H20.2432V18.8892Z" stroke="#C9CAD1" stroke-width="3" stroke-linejoin="round"/>
</g>
<path d="M20.2438 38.804L14.7112 55.8034L20.2438 38.804ZM20.2438 38.804C20.9529 38.2208 21.8505 37.88 22.809 37.88H51.2776C53.9951 37.88 55.9571 40.5373 55.2106 43.2068L50.2437 60.9665C49.742 62.7606 48.1371 63.9974 46.3108 63.9974H17.8422C15.1247 63.9974 13.1627 61.34 13.9093 58.6706L14.7112 55.8034L20.2438 38.804ZM20.2438 38.804V31.6118H11.593C10.2693 31.6118 9.29434 32.8769 9.60492 34.1914L14.7112 55.8034L20.2438 38.804Z" fill="#C9CAD1"/>
<path opacity="0.6" d="M20.2438 38.804V31.6118H11.593C10.2693 31.6118 9.29434 32.8769 9.60492 34.1914L14.7112 55.8034L20.2438 38.804Z" fill="#C9CAD1"/>
<path d="M5.77101 20.2188L6.45075 21.4075C6.88331 22.1639 6.39547 22.8805 5.806 23.2241C5.21654 23.5677 4.77883 23.3906 4.53166 22.9584C3.97551 21.9858 5.51043 21.2352 5.77101 20.2188ZM5.77101 20.2188L3.48462 16.2205L5.77101 20.2188ZM3.48462 16.2205L2.58861 14.6536C2.53368 14.5575 2.54706 14.437 2.62148 14.3578L4.36549 12.5007C4.47711 12.3818 4.67111 12.4071 4.75351 12.5512L5.42655 13.7281C5.47976 13.8212 5.46902 13.9375 5.3999 14.0171L3.48462 16.2205Z" stroke="#A3A3A3" stroke-width="0.7"/>
<path d="M55.9423 21.3696L56.4006 22.171C56.6922 22.681 56.3543 23.1693 55.9491 23.4056C55.5438 23.6418 55.2454 23.5244 55.0787 23.233C54.7038 22.5773 55.7582 22.0598 55.9423 21.3696ZM55.9423 21.3696L54.4009 18.6741L55.9423 21.3696ZM57.1673 16.0901L56.6468 15.1799C56.5933 15.0864 56.4675 15.0673 56.3888 15.1408L53.8739 17.4899C53.8166 17.5433 53.8036 17.6296 53.8425 17.6976L54.4009 18.6741L57.1673 16.0901ZM57.1673 16.0901L54.4009 18.6741L57.1673 16.0901ZM57.1673 16.0901L58.7087 18.7857L57.1673 16.0901ZM58.7087 18.7857L59.167 19.5871C59.4586 20.097 59.1208 20.5854 58.7155 20.8216C58.3102 21.0578 58.0118 20.9404 57.8452 20.649C57.4702 19.9933 58.5246 19.4758 58.7087 18.7857Z" stroke="#A3A3A3" stroke-width="0.7"/>
<mask id="path-8-inside-1_3058_18255" fill="white">
<path fill-rule="evenodd" clip-rule="evenodd" d="M23.6717 6.91872C23.2522 6.18506 23.5005 5.24734 24.2263 4.82424L28.2046 2.50528C28.9304 2.08218 29.8589 2.33392 30.2784 3.06758L30.5543 3.55001L31.8351 1.58959C32.2213 0.998446 33.0887 1.02514 33.4397 1.63898L35.3839 5.03873C35.7349 5.65259 35.3241 6.42439 34.6239 6.4665L32.3019 6.60616L32.5778 7.0886C32.9974 7.82225 32.749 8.75997 32.0232 9.18307L28.045 11.502C27.3191 11.9251 26.3906 11.6734 25.9711 10.9397L23.6717 6.91872ZM31.3596 6.44902C31.3621 6.45359 31.3647 6.4581 31.3673 6.46255L31.9385 7.46129C32.1539 7.83802 32.0264 8.31957 31.6537 8.53683L27.6754 10.8558C27.3027 11.0731 26.8259 10.9438 26.6105 10.567L24.3111 6.54603C24.0957 6.16929 24.2232 5.68775 24.5959 5.47048L28.5741 3.15152C28.9468 2.93425 29.4237 3.06353 29.6391 3.44027L30.2102 4.43901C30.2127 4.44356 30.2153 4.44806 30.2179 4.45253L31.3596 6.44902ZM31.8888 5.88364L34.5793 5.72181C34.7315 5.71264 34.8208 5.54487 34.7445 5.41142L32.8004 2.01167C32.7241 1.87824 32.5355 1.87242 32.4516 2.00094L30.9675 4.27253L31.8888 5.88364Z"/>
</mask>
<path d="M30.5543 3.55001L29.6904 4.05361L30.4957 5.46194L31.386 4.09925L30.5543 3.55001ZM31.8351 1.58959L32.6668 2.13883L32.6668 2.13882L31.8351 1.58959ZM34.6239 6.4665L34.6792 7.46831L34.6792 7.46831L34.6239 6.4665ZM32.3019 6.60616L32.2467 5.60435L30.6327 5.70143L31.438 7.10976L32.3019 6.60616ZM31.3596 6.44902L32.2328 5.96195L32.2282 5.95364L32.2235 5.94542L31.3596 6.44902ZM31.3673 6.46255L32.2313 5.95895L32.2266 5.95069L32.2217 5.94253L31.3673 6.46255ZM30.2102 4.43901L31.0834 3.95201L31.0789 3.94366L31.0741 3.93541L30.2102 4.43901ZM30.2179 4.45253L31.0819 3.94893L31.0772 3.94072L31.0723 3.93259L30.2179 4.45253ZM31.8888 5.88364L31.0248 6.38724L31.3308 6.92233L31.9441 6.88545L31.8888 5.88364ZM34.5793 5.72181L34.6346 6.72361L34.6346 6.72361L34.5793 5.72181ZM32.4516 2.00094L33.2832 2.55018L33.2833 2.55012L32.4516 2.00094ZM30.9675 4.27253L30.1358 3.72329L29.7976 4.24104L30.1035 4.77613L30.9675 4.27253ZM24.5357 6.41512C24.3875 6.15605 24.4789 5.8345 24.7228 5.69233L23.7299 3.95616C22.5222 4.66019 22.1169 6.21408 22.8078 7.42232L24.5357 6.41512ZM24.7228 5.69233L28.701 3.37337L27.7082 1.63719L23.7299 3.95616L24.7228 5.69233ZM28.701 3.37337C28.9449 3.2312 29.2664 3.31212 29.4145 3.57118L31.1424 2.56398C30.4515 1.35573 28.916 0.933159 27.7082 1.63719L28.701 3.37337ZM29.4145 3.57118L29.6904 4.05361L31.4183 3.04641L31.1424 2.56398L29.4145 3.57118ZM31.386 4.09925L32.6668 2.13883L31.0034 1.04035L29.7227 3.00078L31.386 4.09925ZM32.6668 2.13882C32.6646 2.14211 32.6559 2.15188 32.6419 2.15894C32.6303 2.16479 32.6213 2.1657 32.6161 2.16554C32.6108 2.16538 32.6032 2.16397 32.594 2.1586C32.5891 2.15579 32.5846 2.15228 32.5808 2.14848C32.5769 2.14455 32.5755 2.14198 32.5758 2.14258L34.3037 1.13538C33.588 -0.116222 31.8035 -0.184243 31.0034 1.04037L32.6668 2.13882ZM32.5758 2.14258L34.5199 5.54233L36.2478 4.53513L34.3037 1.13538L32.5758 2.14258ZM34.5199 5.54233C34.5203 5.54293 34.5188 5.54039 34.5174 5.53501C34.516 5.5298 34.5153 5.52408 34.5153 5.51846C34.5153 5.5077 34.5179 5.50035 34.5204 5.49568C34.5228 5.491 34.5281 5.48363 34.5389 5.4764C34.552 5.46768 34.5647 5.46493 34.5686 5.4647L34.6792 7.46831C36.1296 7.38106 36.9635 5.78675 36.2478 4.53513L34.5199 5.54233ZM34.5686 5.4647L32.2467 5.60435L32.3572 7.60796L34.6792 7.46831L34.5686 5.4647ZM31.438 7.10976L31.7139 7.5922L33.4418 6.585L33.1659 6.10256L31.438 7.10976ZM31.7139 7.5922C31.862 7.85126 31.7707 8.17281 31.5268 8.31498L32.5196 10.0512C33.7274 9.34713 34.1327 7.79324 33.4418 6.585L31.7139 7.5922ZM31.5268 8.31498L27.5486 10.6339L28.5414 12.3701L32.5196 10.0512L31.5268 8.31498ZM27.5486 10.6339C27.3047 10.7761 26.9832 10.6952 26.8351 10.4361L25.1072 11.4433C25.7981 12.6516 27.3336 13.0742 28.5414 12.3701L27.5486 10.6339ZM26.8351 10.4361L24.5357 6.41512L22.8078 7.42232L25.1072 11.4433L26.8351 10.4361ZM30.4864 6.9361C30.495 6.95172 30.5038 6.96721 30.513 6.98257L32.2217 5.94253C32.2255 5.94899 32.2292 5.95547 32.2328 5.96195L30.4864 6.9361ZM30.5034 6.96615L31.0745 7.96489L32.8024 6.95769L32.2313 5.95895L30.5034 6.96615ZM31.0745 7.96489C31.0186 7.86703 31.048 7.73241 31.1572 7.66875L32.1501 9.40492C33.0047 8.90673 33.2892 7.80901 32.8024 6.95769L31.0745 7.96489ZM31.1572 7.66875L27.179 9.98771L28.1718 11.7239L32.1501 9.40492L31.1572 7.66875ZM27.179 9.98771C27.2883 9.92404 27.4185 9.9656 27.4744 10.0634L25.7465 11.0706C26.2334 11.922 27.3172 12.2221 28.1718 11.7239L27.179 9.98771ZM27.4744 10.0634L25.175 6.04243L23.4472 7.04963L25.7465 11.0706L27.4744 10.0634ZM25.175 6.04243C25.231 6.14027 25.2015 6.2749 25.0923 6.33857L24.0995 4.60239C23.2448 5.1006 22.9603 6.19831 23.4472 7.04963L25.175 6.04243ZM25.0923 6.33857L29.0705 4.01961L28.0777 2.28343L24.0995 4.60239L25.0923 6.33857ZM29.0705 4.01961C28.9613 4.08327 28.8311 4.04172 28.7751 3.94387L30.503 2.93667C30.0162 2.08534 28.9324 1.78523 28.0777 2.28343L29.0705 4.01961ZM28.7751 3.94387L29.3463 4.94261L31.0741 3.93541L30.503 2.93667L28.7751 3.94387ZM29.337 4.926C29.3456 4.94171 29.3544 4.9572 29.3636 4.97248L31.0723 3.93259C31.0761 3.93892 31.0798 3.94541 31.0834 3.95201L29.337 4.926ZM29.354 4.95613L30.4957 6.95262L32.2235 5.94542L31.0819 3.94893L29.354 4.95613ZM31.9441 6.88545L34.6346 6.72361L34.524 4.72L31.8335 4.88184L31.9441 6.88545ZM34.6346 6.72361C35.537 6.66926 36.0494 5.67903 35.6084 4.90782L33.8806 5.91502C33.5922 5.4107 33.926 4.75602 34.5239 4.72001L34.6346 6.72361ZM35.6084 4.90782L33.6643 1.50807L31.9364 2.51527L33.8806 5.91502L35.6084 4.90782ZM33.6643 1.50807C33.2234 0.736974 32.1177 0.689621 31.6198 1.45176L33.2833 2.55012C32.9533 3.05521 32.2248 3.01951 31.9364 2.51527L33.6643 1.50807ZM31.6199 1.4517L30.1358 3.72329L31.7991 4.82177L33.2832 2.55018L31.6199 1.4517ZM30.1035 4.77613L31.0248 6.38724L32.7527 5.38004L31.8314 3.76893L30.1035 4.77613Z" fill="#A3A3A3" mask="url(#path-8-inside-1_3058_18255)"/>
</svg>
